<?xml version="1.0" encoding="us-ascii" standalone="no"?><svg xmlns="http://www.w3.org/2000/svg" xmlns:xlink="http://www.w3.org/1999/xlink" contentStyleType="text/css" height="240px" preserveAspectRatio="none" style="width:195px;height:240px;background:#FFFFFF;" version="1.1" viewBox="0 0 195 240" width="195px" zoomAndPan="magnify"><defs/><g><!--class Utilisateur--><g id="elem_Utilisateur"><rect codeLine="1" fill="#F1F1F1" height="100.8281" id="Utilisateur" rx="2.5" ry="2.5" style="stroke:#181818;stroke-width:0.5;" width="181" x="7" y="7"/><ellipse cx="62.25" cy="23" fill="#ADD1B2" rx="11" ry="11" style="stroke:#181818;stroke-width:1.0;"/><path d="M65.0156,18.875 Q65.1719,18.6563 65.3594,18.5469 Q65.5469,18.4375 65.7656,18.4375 Q66.1406,18.4375 66.375,18.7031 Q66.6094,18.9531 66.6094,19.5625 L66.6094,21.0156 Q66.6094,21.625 66.375,21.8906 Q66.1406,22.1563 65.7656,22.1563 Q65.4219,22.1563 65.2188,21.9531 Q65.0156,21.7656 64.9063,21.25 Q64.8594,20.8906 64.6719,20.7031 Q64.3438,20.3281 63.7344,20.1094 Q63.125,19.8906 62.5,19.8906 Q61.7344,19.8906 61.0938,20.2188 Q60.4688,20.5469 59.9688,21.2969 Q59.4844,22.0469 59.4844,23.0781 L59.4844,24.1719 Q59.4844,25.4063 60.375,26.2344 Q61.2656,27.0469 62.8594,27.0469 Q63.7969,27.0469 64.4531,26.7969 Q64.8438,26.6406 65.2656,26.2031 Q65.5313,25.9375 65.6719,25.8594 Q65.8281,25.7813 66.0313,25.7813 Q66.3594,25.7813 66.6094,26.0469 Q66.875,26.2969 66.875,26.6406 Q66.875,26.9844 66.5313,27.3906 Q66.0313,27.9688 65.2344,28.2969 Q64.1563,28.75 62.8594,28.75 Q61.3438,28.75 60.1406,28.125 Q59.1563,27.625 58.4688,26.5625 Q57.7813,25.4844 57.7813,24.2031 L57.7813,23.0469 Q57.7813,21.7188 58.3906,20.5781 Q59.0156,19.4219 60.1094,18.8125 Q61.2031,18.1875 62.4375,18.1875 Q63.1719,18.1875 63.8125,18.3594 Q64.4688,18.5156 65.0156,18.875 Z " fill="#000000"/><text fill="#000000" font-family="sans-serif" font-size="14" lengthAdjust="spacing" textLength="62" x="82.75" y="28.7285">Utilisateur</text><line style="stroke:#181818;stroke-width:0.5;" x1="8" x2="187" y1="39" y2="39"/><rect fill="none" height="6" style="stroke:#C82930;stroke-width:1.0;" width="6" x="15" y="50.3047"/><text fill="#000000" font-family="sans-serif" font-size="14" lengthAdjust="spacing" textLength="76" x="27" y="57.5332">nom : String</text><rect fill="none" height="6" style="stroke:#C82930;stroke-width:1.0;" width="6" x="15" y="67.9141"/><text fill="#000000" font-family="sans-serif" font-size="14" lengthAdjust="spacing" textLength="129" x="27" y="75.1426">motDePasse : String</text><line style="stroke:#181818;stroke-width:0.5;" x1="8" x2="187" y1="82.2188" y2="82.2188"/><ellipse cx="18" cy="96.5234" fill="#84BE84" rx="3" ry="3" style="stroke:#038048;stroke-width:1.0;"/><text fill="#000000" font-family="sans-serif" font-size="14" lengthAdjust="spacing" textLength="155" x="27" y="100.752">seConnecter() : Boolean</text></g><!--class Admin--><g id="elem_Admin"><rect codeLine="7" fill="#F1F1F1" height="65.6094" id="Admin" rx="2.5" ry="2.5" style="stroke:#181818;stroke-width:0.5;" width="139" x="28" y="168"/><ellipse cx="73.75" cy="184" fill="#ADD1B2" rx="11" ry="11" style="stroke:#181818;stroke-width:1.0;"/><path d="M76.5156,179.875 Q76.6719,179.6563 76.8594,179.5469 Q77.0469,179.4375 77.2656,179.4375 Q77.6406,179.4375 77.875,179.7031 Q78.1094,179.9531 78.1094,180.5625 L78.1094,182.0156 Q78.1094,182.625 77.875,182.8906 Q77.6406,183.1563 77.2656,183.1563 Q76.9219,183.1563 76.7188,182.9531 Q76.5156,182.7656 76.4063,182.25 Q76.3594,181.8906 76.1719,181.7031 Q75.8438,181.3281 75.2344,181.1094 Q74.625,180.8906 74,180.8906 Q73.2344,180.8906 72.5938,181.2188 Q71.9688,181.5469 71.4688,182.2969 Q70.9844,183.0469 70.9844,184.0781 L70.9844,185.1719 Q70.9844,186.4063 71.875,187.2344 Q72.7656,188.0469 74.3594,188.0469 Q75.2969,188.0469 75.9531,187.7969 Q76.3438,187.6406 76.7656,187.2031 Q77.0313,186.9375 77.1719,186.8594 Q77.3281,186.7813 77.5313,186.7813 Q77.8594,186.7813 78.1094,187.0469 Q78.375,187.2969 78.375,187.6406 Q78.375,187.9844 78.0313,188.3906 Q77.5313,188.9688 76.7344,189.2969 Q75.6563,189.75 74.3594,189.75 Q72.8438,189.75 71.6406,189.125 Q70.6563,188.625 69.9688,187.5625 Q69.2813,186.4844 69.2813,185.2031 L69.2813,184.0469 Q69.2813,182.7188 69.8906,181.5781 Q70.5156,180.4219 71.6094,179.8125 Q72.7031,179.1875 73.9375,179.1875 Q74.6719,179.1875 75.3125,179.3594 Q75.9688,179.5156 76.5156,179.875 Z " fill="#000000"/><text fill="#000000" font-family="sans-serif" font-size="14" lengthAdjust="spacing" textLength="39" x="94.25" y="189.7285">Admin</text><line style="stroke:#181818;stroke-width:0.5;" x1="29" x2="166" y1="200" y2="200"/><line style="stroke:#181818;stroke-width:0.5;" x1="29" x2="166" y1="208" y2="208"/><ellipse cx="39" cy="222.3047" fill="#84BE84" rx="3" ry="3" style="stroke:#038048;stroke-width:1.0;"/><text fill="#000000" font-family="sans-serif" font-size="14" lengthAdjust="spacing" textLength="113" x="48" y="226.5332">gererUtilisateurs()</text></g><!--reverse link Utilisateur to Admin--><g id="link_Utilisateur_Admin"><path codeLine="11" d="M97.5,126.39 C97.5,146.12 97.5,150.23 97.5,167.79 " fill="none" id="Utilisateur-backto-Admin" style="stroke:#181818;stroke-width:1.0;"/><polygon fill="none" points="97.5,108.39,91.5,126.39,103.5,126.39,97.5,108.39" style="stroke:#181818;stroke-width:1.0;"/></g><!--SRC=[Iyv9B2vM22t9pCaiJYn9BIrIgEPIKD1LoClFLR1I22ufoinB1mlavfUuf0O05QSYYsih5ASwv-VbfIQNf1PfQ0AbdFBpSr8JyxXgkRYImMOxfkHcve5DrLP8JorABKAoh5X34wGGsNgR6brTY1u0]--></g></svg>